<svg xmlns="http://www.w3.org/2000/svg" xmlns:xlink="http://www.w3.org/1999/xlink" width="500" zoomAndPan="magnify" viewBox="0 0 375 374.999991" height="500" preserveAspectRatio="xMidYMid meet" version="1.2"><defs/><g id="5c5a2e00f2"><g style="fill:#2b2a2a;fill-opacity:1;"><g transform="translate(39.228422, 194.249987)"><path style="stroke:none" d="M 13.359375 0.40625 C 11.285156 0.40625 9.328125 -0.109375 7.484375 -1.140625 C 5.640625 -2.179688 4.148438 -3.59375 3.015625 -5.375 C 1.890625 -7.164062 1.328125 -9.128906 1.328125 -11.265625 C 1.328125 -13.421875 1.863281 -15.410156 2.9375 -17.234375 C 4.019531 -19.066406 5.476562 -20.515625 7.3125 -21.578125 C 9.15625 -22.648438 11.171875 -23.1875 13.359375 -23.1875 C 15.535156 -23.1875 17.546875 -22.65625 19.390625 -21.59375 C 21.242188 -20.539062 22.710938 -19.109375 23.796875 -17.296875 C 24.890625 -15.492188 25.4375 -13.523438 25.4375 -11.390625 C 25.4375 -9.273438 24.890625 -7.3125 23.796875 -5.5 C 22.710938 -3.695312 21.242188 -2.257812 19.390625 -1.1875 C 17.546875 -0.125 15.535156 0.40625 13.359375 0.40625 Z M 13.328125 -21.125 C 11.566406 -21.125 9.941406 -20.671875 8.453125 -19.765625 C 6.960938 -18.867188 5.78125 -17.664062 4.90625 -16.15625 C 4.039062 -14.644531 3.609375 -13.015625 3.609375 -11.265625 C 3.609375 -9.585938 4.050781 -8.007812 4.9375 -6.53125 C 5.832031 -5.050781 7.03125 -3.867188 8.53125 -2.984375 C 10.03125 -2.097656 11.640625 -1.65625 13.359375 -1.65625 C 15.148438 -1.65625 16.796875 -2.097656 18.296875 -2.984375 C 19.796875 -3.867188 20.976562 -5.054688 21.84375 -6.546875 C 22.71875 -8.035156 23.15625 -9.640625 23.15625 -11.359375 C 23.15625 -13.085938 22.71875 -14.703125 21.84375 -16.203125 C 20.976562 -17.703125 19.789062 -18.894531 18.28125 -19.78125 C 16.769531 -20.675781 15.117188 -21.125 13.328125 -21.125 Z M 13.328125 -21.125 "/></g></g><g style="fill:#2b2a2a;fill-opacity:1;"><g transform="translate(70.539112, 194.249987)"><path style="stroke:none" d="M 13.671875 -22.796875 L 13.671875 -20.71875 L 4.4375 -20.71875 L 4.4375 -12.46875 L 13.328125 -12.46875 L 13.328125 -10.40625 L 4.4375 -10.40625 L 4.4375 0 L 2.15625 0 L 2.15625 -22.796875 Z M 13.671875 -22.796875 "/></g></g><g style="fill:#2b2a2a;fill-opacity:1;"><g transform="translate(90.028308, 194.249987)"><path style="stroke:none" d=""/></g></g><g style="fill:#2b2a2a;fill-opacity:1;"><g transform="translate(103.114191, 194.249987)"><path style="stroke:none" d="M 0.1875 -20.71875 L 0.1875 -22.796875 L 12.90625 -22.796875 L 12.90625 -20.71875 L 7.703125 -20.71875 L 7.703125 0 L 5.421875 0 L 5.421875 -20.71875 Z M 0.1875 -20.71875 "/></g></g><g style="fill:#2b2a2a;fill-opacity:1;"><g transform="translate(120.78706, 194.249987)"><path style="stroke:none" d="M 4.625 -10.6875 L 4.625 0 L 2.34375 0 L 2.34375 -22.796875 L 4.625 -22.796875 L 4.625 -12.75 L 16.421875 -12.75 L 16.421875 -22.796875 L 18.6875 -22.796875 L 18.6875 0 L 16.421875 0 L 16.421875 -10.6875 Z M 4.625 -10.6875 "/></g></g><g style="fill:#2b2a2a;fill-opacity:1;"><g transform="translate(146.37171, 194.249987)"><path style="stroke:none" d="M 14.625 -22.796875 L 14.625 -20.71875 L 4.4375 -20.71875 L 4.4375 -12.53125 L 14.296875 -12.53125 L 14.296875 -10.46875 L 4.4375 -10.46875 L 4.4375 -2.0625 L 14.625 -2.0625 L 14.625 0 L 2.15625 0 L 2.15625 -22.796875 Z M 14.625 -22.796875 "/></g></g><g style="fill:#2b2a2a;fill-opacity:1;"><g transform="translate(167.430943, 194.249987)"><path style="stroke:none" d=""/></g></g><g style="fill:#2b2a2a;fill-opacity:1;"><g transform="translate(180.516826, 194.249987)"><path style="stroke:none" d="M 13.25 0.40625 C 11.113281 0.40625 9.128906 -0.109375 7.296875 -1.140625 C 5.472656 -2.179688 4.019531 -3.601562 2.9375 -5.40625 C 1.863281 -7.21875 1.328125 -9.203125 1.328125 -11.359375 C 1.328125 -13.535156 1.859375 -15.523438 2.921875 -17.328125 C 3.992188 -19.140625 5.4375 -20.5625 7.25 -21.59375 C 9.070312 -22.632812 11.0625 -23.15625 13.21875 -23.15625 C 14.613281 -23.15625 16.003906 -22.898438 17.390625 -22.390625 C 18.773438 -21.878906 20.015625 -21.148438 21.109375 -20.203125 C 22.210938 -19.253906 23.0625 -18.164062 23.65625 -16.9375 L 21.09375 -16.9375 C 20.226562 -18.226562 19.082031 -19.242188 17.65625 -19.984375 C 16.226562 -20.722656 14.738281 -21.09375 13.1875 -21.09375 C 11.519531 -21.09375 9.945312 -20.644531 8.46875 -19.75 C 6.988281 -18.863281 5.804688 -17.671875 4.921875 -16.171875 C 4.046875 -14.671875 3.609375 -13.054688 3.609375 -11.328125 C 3.609375 -9.671875 4.050781 -8.09375 4.9375 -6.59375 C 5.832031 -5.09375 7.019531 -3.894531 8.5 -3 C 9.976562 -2.101562 11.550781 -1.65625 13.21875 -1.65625 C 14.75 -1.65625 16.195312 -2.03125 17.5625 -2.78125 C 18.9375 -3.53125 20.144531 -4.59375 21.1875 -5.96875 L 23.75 -5.96875 C 22.632812 -3.976562 21.140625 -2.414062 19.265625 -1.28125 C 17.398438 -0.15625 15.394531 0.40625 13.25 0.40625 Z M 13.25 0.40625 "/></g></g><g style="fill:#2b2a2a;fill-opacity:1;"><g transform="translate(210.103544, 194.249987)"><path style="stroke:none" d="M 17.828125 -8.34375 C 17.828125 -6.476562 17.492188 -4.882812 16.828125 -3.5625 C 16.160156 -2.25 15.238281 -1.257812 14.0625 -0.59375 C 12.894531 0.0703125 11.566406 0.40625 10.078125 0.40625 C 8.597656 0.40625 7.269531 0.078125 6.09375 -0.578125 C 4.925781 -1.242188 4.003906 -2.238281 3.328125 -3.5625 C 2.648438 -4.882812 2.3125 -6.5 2.3125 -8.40625 L 2.3125 -22.796875 L 4.59375 -22.796875 L 4.59375 -8.28125 C 4.59375 -6.101562 5.101562 -4.453125 6.125 -3.328125 C 7.15625 -2.210938 8.472656 -1.65625 10.078125 -1.65625 C 11.585938 -1.65625 12.875 -2.179688 13.9375 -3.234375 C 15.007812 -4.296875 15.546875 -5.96875 15.546875 -8.25 L 15.546875 -22.796875 L 17.828125 -22.796875 Z M 17.828125 -8.34375 "/></g></g><g style="fill:#2b2a2a;fill-opacity:1;"><g transform="translate(234.826202, 194.249987)"><path style="stroke:none" d="M 4.796875 -22.796875 L 4.796875 -2.0625 L 14.234375 -2.0625 L 14.234375 0 L 2.53125 0 L 2.53125 -22.796875 Z M 4.796875 -22.796875 "/></g></g><g style="fill:#2b2a2a;fill-opacity:1;"><g transform="translate(253.607351, 194.249987)"><path style="stroke:none" d="M 0.1875 -20.71875 L 0.1875 -22.796875 L 12.90625 -22.796875 L 12.90625 -20.71875 L 7.703125 -20.71875 L 7.703125 0 L 5.421875 0 L 5.421875 -20.71875 Z M 0.1875 -20.71875 "/></g></g><g style="fill:#2b2a2a;fill-opacity:1;"><g transform="translate(271.280209, 194.249987)"><path style="stroke:none" d="M 17.828125 -8.34375 C 17.828125 -6.476562 17.492188 -4.882812 16.828125 -3.5625 C 16.160156 -2.25 15.238281 -1.257812 14.0625 -0.59375 C 12.894531 0.0703125 11.566406 0.40625 10.078125 0.40625 C 8.597656 0.40625 7.269531 0.078125 6.09375 -0.578125 C 4.925781 -1.242188 4.003906 -2.238281 3.328125 -3.5625 C 2.648438 -4.882812 2.3125 -6.5 2.3125 -8.40625 L 2.3125 -22.796875 L 4.59375 -22.796875 L 4.59375 -8.28125 C 4.59375 -6.101562 5.101562 -4.453125 6.125 -3.328125 C 7.15625 -2.210938 8.472656 -1.65625 10.078125 -1.65625 C 11.585938 -1.65625 12.875 -2.179688 13.9375 -3.234375 C 15.007812 -4.296875 15.546875 -5.96875 15.546875 -8.25 L 15.546875 -22.796875 L 17.828125 -22.796875 Z M 17.828125 -8.34375 "/></g></g><g style="fill:#2b2a2a;fill-opacity:1;"><g transform="translate(296.002879, 194.249987)"><path style="stroke:none" d="M 8.90625 -10.3125 C 10.894531 -10.3125 12.460938 -10.78125 13.609375 -11.71875 C 14.765625 -12.65625 15.34375 -13.910156 15.34375 -15.484375 C 15.34375 -16.328125 15.140625 -17.140625 14.734375 -17.921875 C 14.335938 -18.703125 13.648438 -19.363281 12.671875 -19.90625 C 11.691406 -20.445312 10.394531 -20.71875 8.78125 -20.71875 L 4.4375 -20.71875 L 4.4375 0 L 2.15625 0 L 2.15625 -22.796875 L 9.03125 -22.796875 C 10.914062 -22.796875 12.503906 -22.457031 13.796875 -21.78125 C 15.085938 -21.113281 16.046875 -20.222656 16.671875 -19.109375 C 17.296875 -17.992188 17.609375 -16.765625 17.609375 -15.421875 C 17.609375 -14.210938 17.320312 -13.09375 16.75 -12.0625 C 16.175781 -11.039062 15.375 -10.21875 14.34375 -9.59375 C 13.320312 -8.96875 12.15625 -8.601562 10.84375 -8.5 L 17.28125 0 L 14.40625 0 L 6.6875 -10.3125 Z M 8.90625 -10.3125 "/></g></g><g style="fill:#2b2a2a;fill-opacity:1;"><g transform="translate(319.247865, 194.249987)"><path style="stroke:none" d="M 14.625 -22.796875 L 14.625 -20.71875 L 4.4375 -20.71875 L 4.4375 -12.53125 L 14.296875 -12.53125 L 14.296875 -10.46875 L 4.4375 -10.46875 L 4.4375 -2.0625 L 14.625 -2.0625 L 14.625 0 L 2.15625 0 L 2.15625 -22.796875 Z M 14.625 -22.796875 "/></g></g></g></svg>