<svg xmlns="http://www.w3.org/2000/svg" xmlns:xlink="http://www.w3.org/1999/xlink" width="150" zoomAndPan="magnify" viewBox="0 0 112.5 37.5" height="50" preserveAspectRatio="xMidYMid meet" version="1.2"><defs/><g id="714937e80f"><g style="fill:#000000;fill-opacity:1;"><g transform="translate(1.869099, 21.938364)"><path style="stroke:none" d="M 4.875 0.140625 C 4.125 0.140625 3.410156 -0.046875 2.734375 -0.421875 C 2.054688 -0.796875 1.507812 -1.3125 1.09375 -1.96875 C 0.6875 -2.625 0.484375 -3.34375 0.484375 -4.125 C 0.484375 -4.90625 0.679688 -5.628906 1.078125 -6.296875 C 1.472656 -6.960938 2.003906 -7.488281 2.671875 -7.875 C 3.335938 -8.269531 4.070312 -8.46875 4.875 -8.46875 C 5.675781 -8.46875 6.410156 -8.273438 7.078125 -7.890625 C 7.753906 -7.503906 8.289062 -6.976562 8.6875 -6.3125 C 9.09375 -5.65625 9.296875 -4.9375 9.296875 -4.15625 C 9.296875 -3.382812 9.09375 -2.671875 8.6875 -2.015625 C 8.289062 -1.359375 7.753906 -0.832031 7.078125 -0.4375 C 6.410156 -0.0507812 5.675781 0.140625 4.875 0.140625 Z M 4.875 -7.71875 C 4.226562 -7.71875 3.628906 -7.550781 3.078125 -7.21875 C 2.535156 -6.894531 2.101562 -6.457031 1.78125 -5.90625 C 1.46875 -5.351562 1.3125 -4.757812 1.3125 -4.125 C 1.3125 -3.5 1.472656 -2.914062 1.796875 -2.375 C 2.128906 -1.84375 2.566406 -1.414062 3.109375 -1.09375 C 3.660156 -0.769531 4.25 -0.609375 4.875 -0.609375 C 5.53125 -0.609375 6.128906 -0.769531 6.671875 -1.09375 C 7.222656 -1.414062 7.65625 -1.847656 7.96875 -2.390625 C 8.289062 -2.929688 8.453125 -3.519531 8.453125 -4.15625 C 8.453125 -4.78125 8.289062 -5.363281 7.96875 -5.90625 C 7.65625 -6.457031 7.222656 -6.894531 6.671875 -7.21875 C 6.117188 -7.550781 5.519531 -7.71875 4.875 -7.71875 Z M 4.875 -7.71875 "/></g></g><g style="fill:#000000;fill-opacity:1;"><g transform="translate(13.301588, 21.938364)"><path style="stroke:none" d="M 5 -8.328125 L 5 -7.578125 L 1.625 -7.578125 L 1.625 -4.5625 L 4.875 -4.5625 L 4.875 -3.796875 L 1.625 -3.796875 L 1.625 0 L 0.78125 0 L 0.78125 -8.328125 Z M 5 -8.328125 "/></g></g><g style="fill:#000000;fill-opacity:1;"><g transform="translate(20.41763, 21.938364)"><path style="stroke:none" d=""/></g></g><g style="fill:#000000;fill-opacity:1;"><g transform="translate(25.195598, 21.938364)"><path style="stroke:none" d="M 0.0625 -7.578125 L 0.0625 -8.328125 L 4.71875 -8.328125 L 4.71875 -7.578125 L 2.8125 -7.578125 L 2.8125 0 L 1.984375 0 L 1.984375 -7.578125 Z M 0.0625 -7.578125 "/></g></g><g style="fill:#000000;fill-opacity:1;"><g transform="translate(31.648439, 21.938364)"><path style="stroke:none" d="M 1.6875 -3.90625 L 1.6875 0 L 0.859375 0 L 0.859375 -8.328125 L 1.6875 -8.328125 L 1.6875 -4.65625 L 6 -4.65625 L 6 -8.328125 L 6.828125 -8.328125 L 6.828125 0 L 6 0 L 6 -3.90625 Z M 1.6875 -3.90625 "/></g></g><g style="fill:#000000;fill-opacity:1;"><g transform="translate(40.990149, 21.938364)"><path style="stroke:none" d="M 5.34375 -8.328125 L 5.34375 -7.578125 L 1.625 -7.578125 L 1.625 -4.578125 L 5.21875 -4.578125 L 5.21875 -3.828125 L 1.625 -3.828125 L 1.625 -0.75 L 5.34375 -0.75 L 5.34375 0 L 0.78125 0 L 0.78125 -8.328125 Z M 5.34375 -8.328125 "/></g></g><g style="fill:#000000;fill-opacity:1;"><g transform="translate(48.679472, 21.938364)"><path style="stroke:none" d=""/></g></g><g style="fill:#000000;fill-opacity:1;"><g transform="translate(53.45744, 21.938364)"><path style="stroke:none" d="M 4.84375 0.140625 C 4.0625 0.140625 3.335938 -0.046875 2.671875 -0.421875 C 2.003906 -0.796875 1.472656 -1.3125 1.078125 -1.96875 C 0.679688 -2.632812 0.484375 -3.363281 0.484375 -4.15625 C 0.484375 -4.945312 0.675781 -5.671875 1.0625 -6.328125 C 1.457031 -6.992188 1.984375 -7.515625 2.640625 -7.890625 C 3.304688 -8.265625 4.035156 -8.453125 4.828125 -8.453125 C 5.335938 -8.453125 5.84375 -8.359375 6.34375 -8.171875 C 6.851562 -7.984375 7.304688 -7.71875 7.703125 -7.375 C 8.109375 -7.03125 8.421875 -6.632812 8.640625 -6.1875 L 7.703125 -6.1875 C 7.390625 -6.65625 6.972656 -7.023438 6.453125 -7.296875 C 5.929688 -7.566406 5.382812 -7.703125 4.8125 -7.703125 C 4.207031 -7.703125 3.632812 -7.539062 3.09375 -7.21875 C 2.550781 -6.894531 2.117188 -6.457031 1.796875 -5.90625 C 1.472656 -5.351562 1.3125 -4.765625 1.3125 -4.140625 C 1.3125 -3.535156 1.472656 -2.957031 1.796875 -2.40625 C 2.128906 -1.863281 2.566406 -1.425781 3.109375 -1.09375 C 3.648438 -0.769531 4.222656 -0.609375 4.828125 -0.609375 C 5.390625 -0.609375 5.921875 -0.742188 6.421875 -1.015625 C 6.921875 -1.285156 7.359375 -1.675781 7.734375 -2.1875 L 8.671875 -2.1875 C 8.265625 -1.457031 7.71875 -0.882812 7.03125 -0.46875 C 6.351562 -0.0625 5.625 0.140625 4.84375 0.140625 Z M 4.84375 0.140625 "/></g></g><g style="fill:#000000;fill-opacity:1;"><g transform="translate(64.260452, 21.938364)"><path style="stroke:none" d="M 6.515625 -3.046875 C 6.515625 -2.367188 6.390625 -1.785156 6.140625 -1.296875 C 5.898438 -0.816406 5.566406 -0.457031 5.140625 -0.21875 C 4.710938 0.0195312 4.222656 0.140625 3.671875 0.140625 C 3.140625 0.140625 2.660156 0.0195312 2.234375 -0.21875 C 1.804688 -0.457031 1.46875 -0.816406 1.21875 -1.296875 C 0.96875 -1.785156 0.84375 -2.378906 0.84375 -3.078125 L 0.84375 -8.328125 L 1.671875 -8.328125 L 1.671875 -3.03125 C 1.671875 -2.226562 1.859375 -1.625 2.234375 -1.21875 C 2.609375 -0.8125 3.085938 -0.609375 3.671875 -0.609375 C 4.234375 -0.609375 4.707031 -0.800781 5.09375 -1.1875 C 5.488281 -1.570312 5.6875 -2.179688 5.6875 -3.015625 L 5.6875 -8.328125 L 6.515625 -8.328125 Z M 6.515625 -3.046875 "/></g></g><g style="fill:#000000;fill-opacity:1;"><g transform="translate(73.287423, 21.938364)"><path style="stroke:none" d="M 1.75 -8.328125 L 1.75 -0.75 L 5.203125 -0.75 L 5.203125 0 L 0.921875 0 L 0.921875 -8.328125 Z M 1.75 -8.328125 "/></g></g><g style="fill:#000000;fill-opacity:1;"><g transform="translate(80.144933, 21.938364)"><path style="stroke:none" d="M 0.0625 -7.578125 L 0.0625 -8.328125 L 4.71875 -8.328125 L 4.71875 -7.578125 L 2.8125 -7.578125 L 2.8125 0 L 1.984375 0 L 1.984375 -7.578125 Z M 0.0625 -7.578125 "/></g></g><g style="fill:#000000;fill-opacity:1;"><g transform="translate(86.597774, 21.938364)"><path style="stroke:none" d="M 6.515625 -3.046875 C 6.515625 -2.367188 6.390625 -1.785156 6.140625 -1.296875 C 5.898438 -0.816406 5.566406 -0.457031 5.140625 -0.21875 C 4.710938 0.0195312 4.222656 0.140625 3.671875 0.140625 C 3.140625 0.140625 2.660156 0.0195312 2.234375 -0.21875 C 1.804688 -0.457031 1.46875 -0.816406 1.21875 -1.296875 C 0.96875 -1.785156 0.84375 -2.378906 0.84375 -3.078125 L 0.84375 -8.328125 L 1.671875 -8.328125 L 1.671875 -3.03125 C 1.671875 -2.226562 1.859375 -1.625 2.234375 -1.21875 C 2.609375 -0.8125 3.085938 -0.609375 3.671875 -0.609375 C 4.234375 -0.609375 4.707031 -0.800781 5.09375 -1.1875 C 5.488281 -1.570312 5.6875 -2.179688 5.6875 -3.015625 L 5.6875 -8.328125 L 6.515625 -8.328125 Z M 6.515625 -3.046875 "/></g></g><g style="fill:#000000;fill-opacity:1;"><g transform="translate(95.624746, 21.938364)"><path style="stroke:none" d="M 3.25 -3.765625 C 3.976562 -3.765625 4.550781 -3.9375 4.96875 -4.28125 C 5.394531 -4.625 5.609375 -5.082031 5.609375 -5.65625 C 5.609375 -5.96875 5.53125 -6.265625 5.375 -6.546875 C 5.226562 -6.828125 4.976562 -7.066406 4.625 -7.265625 C 4.269531 -7.472656 3.796875 -7.578125 3.203125 -7.578125 L 1.625 -7.578125 L 1.625 0 L 0.78125 0 L 0.78125 -8.328125 L 3.296875 -8.328125 C 3.984375 -8.328125 4.5625 -8.203125 5.03125 -7.953125 C 5.507812 -7.710938 5.863281 -7.390625 6.09375 -6.984375 C 6.320312 -6.578125 6.4375 -6.128906 6.4375 -5.640625 C 6.4375 -5.191406 6.332031 -4.78125 6.125 -4.40625 C 5.914062 -4.03125 5.625 -3.726562 5.25 -3.5 C 4.875 -3.269531 4.441406 -3.140625 3.953125 -3.109375 L 6.3125 0 L 5.265625 0 L 2.4375 -3.765625 Z M 3.25 -3.765625 "/></g></g><g style="fill:#000000;fill-opacity:1;"><g transform="translate(104.112158, 21.938364)"><path style="stroke:none" d="M 5.34375 -8.328125 L 5.34375 -7.578125 L 1.625 -7.578125 L 1.625 -4.578125 L 5.21875 -4.578125 L 5.21875 -3.828125 L 1.625 -3.828125 L 1.625 -0.75 L 5.34375 -0.75 L 5.34375 0 L 0.78125 0 L 0.78125 -8.328125 Z M 5.34375 -8.328125 "/></g></g></g></svg>